<svg width="24" height="24" viewBox="0 0 24 24" fill="none" xmlns="http://www.w3.org/2000/svg">
<path fill-rule="evenodd" clip-rule="evenodd" d="M20.7154 8.7188H21.1875C22.7383 8.7188 24 9.98048 24 11.5313V12.4688C24 14.0196 22.7383 15.2813 21.1875 15.2813H20.7153C20.5912 15.2813 20.4786 15.3595 20.4285 15.4806L20.4215 15.4978C20.371 15.6194 20.3951 15.7547 20.483 15.8425L20.8168 16.1764C21.348 16.7076 21.6405 17.4138 21.6405 18.1651C21.6405 18.9163 21.348 19.6226 20.8168 20.1538L20.1539 20.8167C19.6227 21.348 18.9164 21.6405 18.1651 21.6405C17.4139 21.6405 16.7076 21.348 16.1764 20.8167L15.8425 20.4829C15.7547 20.3951 15.6194 20.371 15.4978 20.4214L15.4795 20.429C15.3594 20.4786 15.2812 20.5911 15.2812 20.7153V21.1875C15.2812 22.7383 14.0196 24 12.4688 24H11.5312C9.98044 24 8.71875 22.7383 8.71875 21.1875V20.7153C8.71875 20.5911 8.64056 20.4786 8.51948 20.4285L8.50181 20.4212C8.38073 20.3709 8.24522 20.395 8.15742 20.4829L7.82363 20.8167C7.29244 21.348 6.58617 21.6405 5.83486 21.6405C5.08364 21.6405 4.37733 21.348 3.84609 20.8167L3.18319 20.1538C2.652 19.6226 2.35945 18.9163 2.35945 18.1651C2.35945 17.4138 2.652 16.7076 3.18323 16.1763L3.51703 15.8425C3.60487 15.7546 3.62902 15.6193 3.57853 15.4977L3.57019 15.4775C3.52139 15.3594 3.40884 15.2812 3.28463 15.2812H2.8125C1.26169 15.2812 0 14.0195 0 12.4687V11.5312C0 9.98039 1.26169 8.7187 2.8125 8.7187H3.28467C3.40884 8.7187 3.52148 8.64047 3.57145 8.51939L3.57712 8.5057C3.62902 8.38064 3.60492 8.24531 3.51708 8.15742L3.18328 7.82363C2.08664 6.72698 2.08664 4.94273 3.18323 3.84609L3.84614 3.18328C4.37738 2.65205 5.08364 2.3595 5.83491 2.3595C6.58617 2.3595 7.29248 2.65205 7.82367 3.18328L8.15752 3.51712C8.24531 3.60497 8.38078 3.62911 8.50223 3.57858L8.52056 3.57098C8.64061 3.52144 8.7188 3.40889 8.7188 3.28472V2.8125C8.7188 1.26169 9.98048 0 11.5313 0H12.4688C14.0196 0 15.2813 1.26169 15.2813 2.8125V3.28472C15.2813 3.40889 15.3595 3.52144 15.4806 3.57145L15.4982 3.57877C15.6193 3.62906 15.7547 3.60497 15.8426 3.51708L16.1764 3.18328C16.7076 2.65205 17.4139 2.3595 18.1652 2.3595C18.9164 2.3595 19.6227 2.65205 20.154 3.18328L20.8169 3.84619C21.9135 4.94278 21.9135 6.72708 20.8169 7.82367L20.483 8.15752C20.3952 8.24536 20.371 8.38069 20.4215 8.50228L20.4299 8.52253C20.4786 8.64056 20.5912 8.7188 20.7154 8.7188ZM21.1875 13.4062C21.7044 13.4062 22.125 12.9857 22.125 12.4688V11.5312C22.125 11.0143 21.7044 10.5938 21.1875 10.5938H20.7153C19.8292 10.5938 19.0364 10.0605 18.6955 9.23517L18.6885 9.21806C18.3472 8.3963 18.5305 7.45828 19.1571 6.83166L19.491 6.49777C19.8565 6.13223 19.8565 5.53748 19.4909 5.17195L18.828 4.50905C18.651 4.332 18.4155 4.23445 18.1651 4.23445C17.9146 4.23445 17.6793 4.33195 17.5022 4.509L17.1683 4.84289C16.5417 5.46942 15.6036 5.65275 14.7785 5.31009L14.7659 5.30484C13.9395 4.96369 13.4062 4.17089 13.4062 3.28472V2.8125C13.4062 2.29556 12.9857 1.875 12.4688 1.875H11.5312C11.0143 1.875 10.5938 2.29556 10.5938 2.8125V3.28472C10.5938 4.17089 10.0605 4.96369 9.23513 5.30447L9.22191 5.30995C8.39648 5.65289 7.45837 5.46952 6.8317 4.84298L6.49781 4.50909C6.32077 4.332 6.08536 4.2345 5.83491 4.2345C5.5845 4.2345 5.34909 4.33205 5.17195 4.50909L4.50909 5.172C4.14352 5.53753 4.14352 6.13228 4.50909 6.49786L4.84289 6.83166C5.46947 7.45828 5.65284 8.39634 5.31009 9.22153L5.30573 9.23217C4.96364 10.0605 4.17084 10.5938 3.28467 10.5938H2.8125C2.29556 10.5938 1.875 11.0143 1.875 11.5312V12.4688C1.875 12.9857 2.29556 13.4062 2.8125 13.4062H3.28467C4.1708 13.4062 4.96359 13.9395 5.30447 14.7648L5.31056 14.7795C5.6527 15.6045 5.46923 16.542 4.84294 17.1683L4.50909 17.5022C4.332 17.6792 4.2345 17.9147 4.2345 18.1651C4.2345 18.4155 4.332 18.6509 4.50909 18.828L5.172 19.4909C5.34905 19.668 5.5845 19.7655 5.83491 19.7655C6.08536 19.7655 6.32072 19.668 6.49781 19.491L6.83166 19.1571C7.24861 18.7402 7.80361 18.5194 8.37131 18.5194C8.65678 18.5194 8.94539 18.5752 9.22149 18.6899L9.23414 18.6951C10.0605 19.0363 10.5938 19.8291 10.5938 20.7153V21.1875C10.5938 21.7044 11.0143 22.125 11.5312 22.125H12.4688C12.9857 22.125 13.4062 21.7044 13.4062 21.1875V20.7153C13.4062 19.8291 13.9395 19.0363 14.7649 18.6955L14.7781 18.69C15.6036 18.3472 16.5417 18.5305 17.1683 19.157L17.5022 19.4909C17.6792 19.668 17.9146 19.7655 18.1651 19.7655C18.4155 19.7655 18.6509 19.668 18.828 19.4909L19.4909 18.828C19.668 18.6509 19.7655 18.4155 19.7655 18.1651C19.7655 17.9147 19.668 17.6792 19.491 17.5022L19.1571 17.1683C18.5308 16.542 18.3473 15.6045 18.6894 14.7795L18.6955 14.7648C19.0364 13.9395 19.8292 13.4062 20.7153 13.4062H21.1875ZM15.44 12C15.44 13.8999 13.8999 15.44 12 15.44C10.1001 15.44 8.56 13.8999 8.56 12C8.56 10.1001 10.1001 8.56 12 8.56C13.8999 8.56 15.44 10.1001 15.44 12ZM17.44 12C17.44 15.0044 15.0044 17.44 12 17.44C8.99557 17.44 6.56 15.0044 6.56 12C6.56 8.99557 8.99557 6.56 12 6.56C15.0044 6.56 17.44 8.99557 17.44 12Z" fill="#2675EC"/>
</svg>
